<?xml version="1.0" encoding="UTF-8" standalone="no"?><!DOCTYPE svg PUBLIC "-//W3C//DTD SVG 1.1//EN" "http://www.w3.org/Graphics/SVG/1.1/DTD/svg11.dtd"><svg width="100%" height="100%" viewBox="0 0 24 24" version="1.1" xmlns="http://www.w3.org/2000/svg" xmlns:xlink="http://www.w3.org/1999/xlink" xml:space="preserve" xmlns:serif="http://www.serif.com/" style="fill-rule:evenodd;clip-rule:evenodd;stroke-linejoin:round;stroke-miterlimit:2;"><path d="M17,18c1.097,0 2,0.903 2,2c0,1.097 -0.903,2 -2,2c-1.11,0 -2,-0.9 -2,-2c0,-1.11 0.89,-2 2,-2m-16,-16l3.27,0l0.94,2l14.79,0c0.549,0 1,0.451 1,1c0,0.17 -0.05,0.34 -0.12,0.5l-3.58,6.47c-0.34,0.61 -1,1.03 -1.75,1.03l-7.45,0l-0.9,1.63l-0.03,0.12c0,0.137 0.113,0.25 0.25,0.25l11.58,0l0,2l-12,0c-1.11,0 -2,-0.9 -2,-2c0,-0.35 0.09,-0.68 0.24,-0.96l1.36,-2.45l-3.6,-7.59l-2,0l0,-2m6,16c1.097,0 2,0.903 2,2c0,1.097 -0.903,2 -2,2c-1.11,0 -2,-0.9 -2,-2c0,-1.11 0.89,-2 2,-2m9,-7l2.78,-5l-12.64,0l2.36,5l7.5,0Z" style="fill:#fff;fill-rule:nonzero;"/></svg>